{
    "asset" : {
        "generator" : "Khronos glTF Blender I/O v1.8.19",
        "version" : "2.0"
    },
    "scene" : 0,
    "scenes" : [
        {
            "name" : "Scene",
            "nodes" : [
                1
            ]
        }
    ],
    "nodes" : [
        {
            "mesh" : 0,
            "name" : "Coconut_02",
            "scale" : [
                0.3937007784843445,
                0.3937007784843445,
                0.3937007784843445
            ]
        },
        {
            "children" : [
                0
            ],
            "name" : "CoconutsTree",
            "rotation" : [
                0.7071068286895752,
                0,
                0,
                0.7071067094802856
            ],
            "scale" : [
                0.009999999776482582,
                0.009999997913837433,
                0.009999997913837433
            ]
        }
    ],
    "materials" : [
        {
            "doubleSided" : true,
            "name" : "Palm",
            "pbrMetallicRoughness" : {
                "baseColorFactor" : [
                    0.09067103266716003,
                    0.0008226772188208997,
                    0.0004191118059679866,
                    1
                ],
                "metallicFactor" : 0,
                "roughnessFactor" : 0.5
            }
        }
    ],
    "meshes" : [
        {
            "name" : "Mesh.002",
            "primitives" : [
                {
                    "attributes" : {
                        "POSITION" : 0,
                        "NORMAL" : 1,
                        "TEXCOORD_0" : 2
                    },
                    "indices" : 3,
                    "material" : 0
                }
            ]
        }
    ],
    "accessors" : [
        {
            "bufferView" : 0,
            "componentType" : 5126,
            "count" : 1684,
            "max" : [
                360.299560546875,
                566.4553833007812,
                -0.105966717004776
            ],
            "min" : [
                -222.28819274902344,
                -52.41394805908203,
                -1013.688720703125
            ],
            "type" : "VEC3"
        },
        {
            "bufferView" : 1,
            "componentType" : 5126,
            "count" : 1684,
            "type" : "VEC3"
        },
        {
            "bufferView" : 2,
            "componentType" : 5126,
            "count" : 1684,
            "type" : "VEC2"
        },
        {
            "bufferView" : 3,
            "componentType" : 5123,
            "count" : 6309,
            "type" : "SCALAR"
        }
    ],
    "bufferViews" : [
        {
            "buffer" : 0,
            "byteLength" : 20208,
            "byteOffset" : 0
        },
        {
            "buffer" : 0,
            "byteLength" : 20208,
            "byteOffset" : 20208
        },
        {
            "buffer" : 0,
            "byteLength" : 13472,
            "byteOffset" : 40416
        },
        {
            "buffer" : 0,
            "byteLength" : 12618,
            "byteOffset" : 53888
        }
    ],
    "buffers" : [
        {
            "byteLength" : 66508,
            "uri" : "data:application/octet-stream;base64,"
        }
    ]
}
